<svg width="224" height="50" viewBox="0 0 224 50" fill="none" xmlns="http://www.w3.org/2000/svg">
<g clip-path="url(#clip0_4_410)">
<path d="M6.2266 48.7305C4.3589 47.8856 2.88036 46.7372 1.78959 45.2867C0.700214 43.8363 0.103219 42.2313 0 40.4705H7.31598C7.45407 41.5757 7.99806 42.4902 8.95074 43.2155C9.90202 43.9407 11.0863 44.3026 12.5048 44.3026C13.9234 44.3026 14.9695 44.027 15.7478 43.4744C16.5262 42.9232 16.9153 42.2146 16.9153 41.3516C16.9153 40.419 16.4397 39.7202 15.4884 39.2539C14.5371 38.7876 13.0237 38.2795 10.9482 37.7269C8.80288 37.2091 7.04817 36.6745 5.68121 36.1219C4.31426 35.5707 3.13841 34.7244 2.15225 33.5843C1.16609 32.4457 0.673711 30.909 0.673711 28.9755C0.673711 27.3886 1.13122 25.9382 2.04903 24.6256C2.96545 23.3143 4.28079 22.2787 5.99227 21.5186C7.70514 20.76 9.7193 20.38 12.0375 20.38C15.4619 20.38 18.1944 21.2347 20.2365 22.9426C22.2771 24.652 23.4014 26.9557 23.6092 29.8552H16.6559C16.5527 28.7166 16.0756 27.8104 15.2289 27.1367C14.3809 26.463 13.2483 26.1275 11.8297 26.1275C10.5144 26.1275 9.5031 26.3697 8.79452 26.8527C8.08454 27.3371 7.73025 28.0095 7.73025 28.8725C7.73025 29.8399 8.21426 30.5735 9.18368 31.0732C10.1517 31.5743 11.6567 32.0824 13.6974 32.6002C15.7729 33.118 17.4858 33.6539 18.8346 34.2052C20.1834 34.7578 21.3509 35.6125 22.3371 36.7678C23.3232 37.9246 23.8324 39.4529 23.8672 41.3502C23.8672 43.0067 23.4083 44.4919 22.4919 45.8032C21.5755 47.1158 20.2602 48.1417 18.5487 48.8836C16.8372 49.6256 14.8384 49.9972 12.555 49.9972C10.2717 49.9972 8.09291 49.574 6.22521 48.7291L6.2266 48.7305Z" fill="white"/>
<path d="M44.7272 49.5337L34.9716 37.3135V49.5337H27.7073V11.2152H34.9716V33.015L44.6226 20.8463H54.0657L41.4047 35.2422L54.1689 49.5337H44.7258H44.7272Z" fill="white"/>
<path d="M63.1476 20.8463H55.8832V49.5337H63.1476V20.8463Z" fill="white"/>
<path d="M75.4459 11.2152V49.5337H68.1815V11.2152H75.4459Z" fill="white"/>
<path d="M87.7429 11.2152V49.5337H80.4785V11.2152H87.7429Z" fill="white"/>
<path d="M119.292 37.3649H98.2768C98.4498 39.4362 99.1765 41.0592 100.456 42.2327C101.735 43.4061 103.309 43.9935 105.177 43.9935C107.875 43.9935 109.795 42.8368 110.936 40.5247H118.771C117.941 43.2864 116.35 45.5567 113.998 47.3343C111.645 49.1132 108.758 50.0013 105.333 50.0013C102.566 50.0013 100.083 49.3889 97.8876 48.1625C95.6907 46.9376 93.9779 45.2032 92.7504 42.9579C91.5215 40.714 90.9078 38.1249 90.9078 35.1906C90.9078 32.2563 91.5132 29.6158 92.7239 27.3719C93.9346 25.128 95.6294 23.4019 97.8095 22.1937C99.9883 20.9855 102.496 20.3813 105.333 20.3813C108.17 20.3813 110.514 20.9688 112.676 22.1422C114.838 23.3156 116.516 24.9818 117.708 27.1394C118.902 29.297 119.498 31.7733 119.498 34.5698C119.498 35.6055 119.428 36.5381 119.29 37.3663L119.292 37.3649ZM111.974 32.4972C111.939 30.6333 111.264 29.1397 109.95 28.0178C108.635 26.8958 107.027 26.3349 105.124 26.3349C103.325 26.3349 101.811 26.8791 100.584 27.9663C99.355 29.0534 98.6032 30.5637 98.327 32.4972H111.974Z" fill="white"/>
<path d="M146.896 23.6693C149.005 25.8268 150.061 28.8391 150.061 32.7046V49.5337H142.796V33.6888C142.796 31.4101 142.226 29.659 141.083 28.4326C139.942 27.2077 138.386 26.5938 136.413 26.5938C134.441 26.5938 132.824 27.2077 131.665 28.4326C130.506 29.659 129.927 31.4101 129.927 33.6888V49.5337H122.663V20.8463H129.927V24.4195C130.895 23.1765 132.133 22.2021 133.638 21.4936C135.143 20.7865 136.794 20.4315 138.593 20.4315C142.018 20.4315 144.785 21.5103 146.896 23.6679V23.6693Z" fill="white"/>
<path d="M154.782 27.397C155.993 25.1698 157.669 23.4451 159.815 22.2188C161.959 20.9939 164.415 20.38 167.182 20.38C170.745 20.38 173.695 21.2695 176.03 23.047C178.365 24.826 179.93 27.319 180.726 30.5289H172.891C172.476 29.2859 171.775 28.3115 170.789 27.603C169.803 26.8959 168.584 26.5409 167.131 26.5409C165.055 26.5409 163.412 27.2912 162.201 28.7931C160.991 30.2951 160.385 32.4262 160.385 35.1879C160.385 37.9496 160.991 40.0292 162.201 41.5312C163.412 43.0331 165.055 43.7834 167.131 43.7834C170.071 43.7834 171.99 42.4722 172.89 39.8483H180.725C179.928 42.9552 178.355 45.4232 176.003 47.2536C173.65 49.0841 170.711 49.9986 167.182 49.9986C164.415 49.9986 161.959 49.3861 159.815 48.1598C157.669 46.9349 155.991 45.2088 154.782 42.9816C153.571 40.7544 152.966 38.1584 152.966 35.1879C152.966 32.2174 153.571 29.6214 154.782 27.3942V27.397Z" fill="white"/>
<path d="M184.435 16.2124C183.587 15.4022 183.164 14.3917 183.164 13.1834C183.164 11.9752 183.587 10.966 184.435 10.1545C185.282 9.34432 186.346 8.93787 187.626 8.93787C188.907 8.93787 189.97 9.34432 190.818 10.1545C191.665 10.966 192.089 11.9752 192.089 13.1834C192.089 14.3917 191.665 15.4022 190.818 16.2124C189.97 17.0239 188.906 17.429 187.626 17.429C186.347 17.429 185.283 17.0239 184.435 16.2124ZM191.207 20.8463V49.5336H183.943V20.8463H191.207Z" fill="white"/>
<path d="M201.533 48.1612C199.32 46.9363 197.58 45.2019 196.318 42.9566C195.054 40.7127 194.424 38.1237 194.424 35.1894C194.424 32.2551 195.072 29.666 196.369 27.4221C197.667 25.1782 199.44 23.4438 201.688 22.2175C203.936 20.9925 206.444 20.3787 209.212 20.3787C211.979 20.3787 214.487 20.9925 216.736 22.2175C218.984 23.4438 220.757 25.1782 222.054 27.4221C223.351 29.666 224 32.2551 224 35.1894C224 38.1237 223.333 40.7127 222.003 42.9566C220.67 45.2005 218.871 46.9363 216.606 48.1612C214.339 49.3876 211.806 50 209.004 50C206.202 50 203.745 49.3876 201.532 48.1612H201.533ZM212.714 42.7242C213.873 42.0852 214.798 41.1275 215.49 39.8497C216.182 38.5733 216.528 37.0198 216.528 35.1894C216.528 32.4625 215.809 30.3661 214.374 28.8976C212.939 27.4304 211.183 26.6969 209.107 26.6969C207.032 26.6969 205.294 27.4304 203.892 28.8976C202.491 30.3647 201.79 32.4625 201.79 35.1894C201.79 37.9162 202.472 40.014 203.839 41.4811C205.204 42.9483 206.926 43.6818 209.001 43.6818C210.315 43.6818 211.552 43.3631 212.711 42.7242H212.714Z" fill="white"/>
<path d="M45.7803 18.2642L56.2542 12.9106L63.1559 18.0387L59.0495 0L45.7803 18.2642Z" fill="#FF4100"/>
</g>
<defs>
<clipPath id="clip0_4_410">
<rect width="224" height="50" fill="white"/>
</clipPath>
</defs>
</svg>
