<svg width="20" height="20" viewBox="0 0 20 20" fill="none" xmlns="http://www.w3.org/2000/svg">
<path d="M11.4534 2.19467L17.7267 6.27235C17.9484 6.41643 18.0592 6.48848 18.1395 6.58457C18.2106 6.66964 18.264 6.76803 18.2966 6.87399C18.3334 6.9937 18.3334 7.12589 18.3334 7.39027V13.5C18.3334 14.9002 18.3334 15.6002 18.0609 16.135C17.8212 16.6054 17.4388 16.9879 16.9684 17.2275C16.4336 17.5 15.7335 17.5 14.3334 17.5H5.66675C4.26662 17.5 3.56655 17.5 3.03177 17.2275C2.56137 16.9879 2.17892 16.6054 1.93923 16.135C1.66675 15.6002 1.66675 14.9002 1.66675 13.5V7.39027C1.66675 7.12589 1.66675 6.9937 1.70356 6.87399C1.73614 6.76803 1.78954 6.66964 1.86062 6.58457C1.94092 6.48848 2.05176 6.41643 2.27343 6.27235L8.54678 2.19467M11.4534 2.19467C10.9273 1.85275 10.6643 1.68178 10.3809 1.61527C10.1304 1.55647 9.86973 1.55647 9.61923 1.61527C9.33583 1.68178 9.07282 1.85275 8.54678 2.19467M11.4534 2.19467L16.6135 5.54876C17.1867 5.92135 17.4733 6.10764 17.5726 6.34389C17.6594 6.55035 17.6594 6.78303 17.5726 6.98949C17.4733 7.22574 17.1867 7.41203 16.6135 7.78462L11.4534 11.1387C10.9274 11.4806 10.6643 11.6516 10.3809 11.7181C10.1304 11.7769 9.86973 11.7769 9.61923 11.7181C9.33583 11.6516 9.07282 11.4806 8.54678 11.1387L3.38663 7.78462C2.81343 7.41203 2.52682 7.22574 2.42756 6.98949C2.34081 6.78303 2.34081 6.55035 2.42756 6.34389C2.52682 6.10764 2.81343 5.92135 3.38663 5.54877L8.54678 2.19467M17.9167 15.8334L12.3811 10.8334M7.6191 10.8334L2.08341 15.8334" stroke="#0051F9" stroke-width="1.5" stroke-linecap="round" stroke-linejoin="round"/>
</svg>
