<svg width="20" height="20" viewBox="0 0 20 20" fill="none" xmlns="http://www.w3.org/2000/svg">
<g clip-path="url(#clip0_53_2854)">
<path d="M11.7081 4.99996C12.5221 5.15876 13.2701 5.55684 13.8565 6.14324C14.4429 6.72964 14.841 7.47768 14.9998 8.29163M11.7081 1.66663C13.3992 1.85449 14.9761 2.61177 16.18 3.81413C17.3839 5.01649 18.1431 6.59247 18.3331 8.28329M8.52228 11.5525C7.52097 10.5512 6.73031 9.419 6.15031 8.21098C6.10042 8.10708 6.07548 8.05512 6.05631 7.98938C5.98821 7.75575 6.03713 7.46887 6.17881 7.27101C6.21867 7.21533 6.2663 7.1677 6.36156 7.07244C6.6529 6.7811 6.79857 6.63544 6.89381 6.48895C7.25297 5.93654 7.25297 5.22439 6.89381 4.67199C6.79857 4.5255 6.6529 4.37984 6.36156 4.0885L6.19917 3.92611C5.7563 3.48324 5.53487 3.2618 5.29705 3.14151C4.82408 2.90229 4.26553 2.90229 3.79256 3.14152C3.55474 3.2618 3.33331 3.48324 2.89044 3.92611L2.75908 4.05747C2.31773 4.49882 2.09705 4.7195 1.92851 5.01952C1.74149 5.35244 1.60703 5.86952 1.60816 6.25137C1.60918 6.59549 1.67594 6.83068 1.80944 7.30105C2.52692 9.82888 3.88065 12.2142 5.87063 14.2042C7.86061 16.1942 10.2459 17.5479 12.7737 18.2654C13.2441 18.3989 13.4793 18.4656 13.8234 18.4666C14.2053 18.4678 14.7224 18.3333 15.0553 18.1463C15.3553 17.9777 15.576 17.7571 16.0173 17.3157L16.1487 17.1844C16.5916 16.7415 16.813 16.5201 16.9333 16.2822C17.1725 15.8093 17.1725 15.2507 16.9333 14.7777C16.813 14.5399 16.5916 14.3185 16.1487 13.8756L15.9863 13.7132C15.695 13.4219 15.5493 13.2762 15.4028 13.181C14.8504 12.8218 14.1383 12.8218 13.5858 13.181C13.4394 13.2762 13.2937 13.4219 13.0024 13.7132C12.9071 13.8085 12.8595 13.8561 12.8038 13.896C12.6059 14.0377 12.319 14.0866 12.0854 14.0185C12.0197 13.9993 11.9677 13.9744 11.8638 13.9245C10.6558 13.3445 9.5236 12.5538 8.52228 11.5525Z" stroke="#0051F9" stroke-width="1.5" stroke-linecap="round" stroke-linejoin="round"/>
</g>
<defs>
<clipPath id="clip0_53_2854">
<rect width="20" height="20" fill="white"/>
</clipPath>
</defs>
</svg>
